<?xml version="1.0" encoding="UTF-8" standalone="no"?><!DOCTYPE svg PUBLIC "-//W3C//DTD SVG 1.1//EN" "http://www.w3.org/Graphics/SVG/1.1/DTD/svg11.dtd"><svg width="100%" height="100%" viewBox="0 0 600 300" version="1.1" xmlns="http://www.w3.org/2000/svg" xmlns:xlink="http://www.w3.org/1999/xlink" xml:space="preserve" xmlns:serif="http://www.serif.com/" style="fill-rule:evenodd;clip-rule:evenodd;stroke-linejoin:round;stroke-miterlimit:2;"><rect x="-0.079" y="-0" width="600.079" height="300" style="fill:#262626;"/><g id="Loud-Bit" serif:id="Loud Bit"><path d="M117.41,86.592c-6.441,-2.868 -15.133,-7.982 -19.839,-14.013c-8.499,9.725 -41.099,41.399 -70.155,37.596c-0.41,-0.141 10.641,12.486 11.921,13.295c4.088,-0.147 15.957,-2.1 31.741,-8.481c-15.003,37.572 -34.796,89.269 -49.172,127.15c-0.284,0.82 2.919,1.376 6.314,1.907c-8.91,2.151 -18.193,5.916 -27.122,12.372l17.511,11.19c27.39,-19.253 62.851,-14.338 78.581,-10.737l0.192,-0.025c-0.243,-0.359 -6.861,-4.573 -5.212,-9.875l17.593,-46.128c0.4,-1.422 1.134,-3.278 1.584,-4.316c0.45,-1.037 1.644,-2.367 1.619,-2.56c-2.626,-0.632 -11.167,-4.593 -16.692,-10.907c-0.218,-0.166 -0.385,0.051 -0.385,0.051c-0.9,2.075 -5.473,16.368 -23.64,22.475l7.953,2.474l1.832,0.541c2.448,-0.713 3.551,-1.25 4.219,-2.12l-14.411,36.125c-7.048,-0.05 -17.617,-1.593 -27.523,-1.071l54.205,-140.917c4.068,-3.274 10.908,-9.259 13.872,-11.997c1.746,-1.599 5.014,-2.029 5.014,-2.029Z" style="fill:#fefffe;fill-rule:nonzero;"/><path d="M182.683,188.7c0,0 -8.56,7.777 -17.868,18.782c-0.167,0.218 -1.073,-2.206 -1.979,-4.629l21.256,-52.477c0.475,-0.845 1.477,-2.151 0.951,-1.69c-8.985,9.006 -17.065,5.571 -27.346,0.275c-0.192,0.025 -0.025,-0.192 -0.025,-0.192l-0.359,0.243l0.167,-0.218l-0.167,0.218c-1.245,0.946 -11.829,8.207 -28.104,9.372c-0,-0 5.646,2.777 2.404,10.832c-7.462,17.607 -18.044,47.164 -25.53,64.579l24.164,17.16l21.061,-19.789l6.343,-15.7l11.151,-1.468c5.742,-8.383 13.138,-17.572 21.121,-25.273l-7.24,-0.025Zm-61.027,50.477c8.028,-19.246 23.026,-61.316 31.463,-80.421c0.81,-1.28 2.869,0.992 8.222,3.025c-0,0 -8.802,22.282 -17.144,30.226l1.958,8.935l-8.943,22.692l-15.556,15.543Z" style="fill:#fefffe;fill-rule:nonzero;"/><path d="M203.367,210.621c-6.784,3.436 -13.917,8.678 -19.568,16.267c2.59,-8.555 27.498,-68.945 27.498,-68.945l-0.026,-0.193c1.042,-2.484 2.11,-4.776 3.01,-6.85l-0.025,-0.193l4.193,-9.744c0,-0 -10.841,8.273 -28.271,9.589c0,0 5.839,2.752 2.404,10.832l-25.707,63.234l15.013,18.951c2.57,3.182 6.617,-10.65 18.207,-22.151l14.091,17.899c1.432,1.963 17.716,-34.799 43.051,-59.258l-7.047,-0.05c-0,-0 -23.292,20.669 -33.951,42.217c4.856,-15.112 24.822,-62.53 32.258,-80.329c0.309,-0.628 1.477,-2.151 0.784,-1.473c-5.878,5.859 -12.825,6.578 -19.908,4.773l-1.416,4.098c-8.018,20.81 -16.521,40.901 -24.59,61.326Z" style="fill:#fefffe;fill-rule:nonzero;"/><path d="M290.343,144.798c-0.116,0.602 -0.066,0.986 -0.182,1.588c-7.552,18.402 -14.887,36.97 -22.414,55.564c-6.592,3.41 -13.751,8.46 -19.568,16.267c4.431,-13.883 22.004,-55.705 30.649,-76.206c0.617,-1.255 6.162,0.753 11.515,2.787Zm51.069,-80.068c-0,-0 -11.034,8.298 -28.464,9.614c0,0 5.839,2.752 2.404,10.832c-8.852,21.898 -15.271,37.021 -21.023,51.273c-3.83,-0.864 -7.569,-2.524 -11.333,-4.375c0,-0 -10.649,8.247 -28.271,9.589c0,0 5.672,2.97 2.596,10.807l-25.874,63.451l15.205,18.926c2.378,3.208 6.232,-10.599 17.989,-22.318l14.31,18.066c1.406,1.771 17.69,-34.992 42.833,-59.425l-7.215,0.167c0,0 -23.099,20.644 -33.591,41.975l60.434,-148.582Z" style="fill:#fefffe;fill-rule:nonzero;"/><path d="M491.09,97.832c0.374,-1.614 1.852,-3.764 3.121,-4.518c-9.855,0.906 -21.659,1.874 -34.069,-1.773c12.243,-3.568 27.212,-20.599 25.749,-34.684c-4.348,-36.002 -86.578,-27.719 -112.449,-4.363c3.612,8.13 9.755,13.189 10.94,25.159c8.711,-14.055 30.607,-27.5 53.859,-32.126c26.663,-5.466 38.614,12.52 22.491,29.702c-6.162,6.679 -14.868,10.368 -21.279,12.19l16.112,-41.043c-0,0 -10.655,3.75 -28.085,5.067c2.677,1.016 3.648,2.453 3.057,3.9c-10.795,26.456 -20.806,51.44 -30.908,77.218c-18.608,1.277 -38.753,10.188 -47.541,23.666c-16.456,25.05 23.719,70.223 59.826,56.276c29.222,-11.279 53.459,-45.568 65.964,-75.379c5.377,-12.638 9.282,-26.061 13.212,-39.292Zm-99.672,103.092c-24.695,1.1 -41.604,-17.406 -22.84,-35.328c5.377,-5.206 13.482,-9.012 22.25,-10.753c-3.076,7.838 -6.318,15.892 -9.368,23.922c-0.592,1.447 -2.849,2.135 -4.27,1.735c12.057,8.388 15.877,15.122 18.69,18.663l17.411,-44.539c7.635,1.538 14.369,5.15 18.473,11.064c-1.873,-6.795 -3.917,-17.87 -3.923,-29.8c-0.875,2.267 -4.422,0.582 -5.844,0.183c-0.435,-0.334 -0.845,-0.476 -1.447,-0.592l14.837,-37.354c12.278,-1.812 32.208,3.974 32.091,4.576c-6.837,35.715 -42.805,96.779 -76.06,98.223Z" style="fill:#fefffe;fill-rule:nonzero;"/><path d="M507.704,85.866l-6.227,15.097l18.072,-2.379c2.226,-5.378 4.31,-10.347 6.419,-15.123l-18.264,2.405Zm-13.213,24.427c-0,0 5.839,2.752 2.596,10.807c-8.569,21.078 -17.138,42.156 -25.707,63.234l14.846,19.168c1.598,1.746 17.882,-35.017 43.217,-59.475l-7.24,-0.025c0,-0 -23.266,20.861 -33.95,42.218c8.862,-27.767 23.046,-58.19 34.701,-85.542c0,0 -11.034,8.299 -28.463,9.615Z" style="fill:#fefffe;fill-rule:nonzero;"/><path d="M536.269,77.02c8.089,-2.434 3.334,-1.417 12.794,-3.836c-15.696,38.25 -22.707,54.82 -44.013,106.913l15.204,18.925c2.379,3.208 18.207,-29.583 44.393,-49.068l0.348,-9.239c0,0 -26.686,20.138 -43.022,41.652l46.422,-113.879c10.614,-2.571 21.112,-4.54 30.507,-5.973l-12.188,-6.414c-5.024,0.466 -9.638,1.073 -13.868,1.63l10.062,-24.599c-0,-0 -10.65,8.247 -28.464,9.615c0,-0 6.057,2.918 2.789,10.781l-3.293,7.67c-7.23,1.539 -0.987,-0.066 -10.139,1.726l-7.532,14.096Z" style="fill:#fefffe;fill-rule:nonzero;"/></g></svg>